HIERARCHY
ROOT Hips
{
	OFFSET -3.958830 18.904000 13.208200
	CHANNELS 6 Xposition Yposition Zposition Zrotation Yrotation Xrotation 
	JOINT LHipJoint
	{
		OFFSET 0.000000 0.000000 0.000000
		CHANNELS 3 Zrotation Yrotation Xrotation
		JOINT LeftUpLeg
		{
			OFFSET 1.800000 -1.400000 0.085000
			CHANNELS 3 Zrotation Yrotation Xrotation
			JOINT LeftLeg
			{
				OFFSET 2.215000 -6.000000 0.000000
				CHANNELS 3 Zrotation Yrotation Xrotation
				JOINT LeftFoot
				{
					OFFSET 2.500000 -6.900000 0.000000
					CHANNELS 3 Zrotation Yrotation Xrotation
					JOINT LeftToeBase
					{
						OFFSET 0.200000 -0.500000 1.950000
						CHANNELS 3 Zrotation Yrotation Xrotation
						End Site
						{
							OFFSET 0.000000 0.000000 0.000000
						}
					}
				}
			}
		}
	}
	JOINT RHipJoint
	{
		OFFSET 0.000000 0.000000 0.000000
		CHANNELS 3 Zrotation Yrotation Xrotation
		JOINT RightUpLeg
		{
			OFFSET -1.800000 -1.400000 0.085000
			CHANNELS 3 Zrotation Yrotation Xrotation
			JOINT RightLeg
			{
				OFFSET -2.215000 -6.000000 0.000000
				CHANNELS 3 Zrotation Yrotation Xrotation
				JOINT RightFoot
				{
					OFFSET -2.500000 -6.900000 0.000000
					CHANNELS 3 Zrotation Yrotation Xrotation
					JOINT RightToeBase
					{
						OFFSET -0.200000 -0.500000 1.950000
						CHANNELS 3 Zrotation Yrotation Xrotation
						End Site
						{
							OFFSET 0.000000 0.000000 0.000000
						}
					}
				}
			}
		}
	}
	JOINT LowerBack
	{
		OFFSET 0.000000 0.000000 0.000000
		CHANNELS 3 Zrotation Yrotation Xrotation
		JOINT Spine
		{
			OFFSET -0.087000 1.940000 -0.288900
			CHANNELS 3 Zrotation Yrotation Xrotation
			JOINT Spine1
			{
				OFFSET 0.000000 1.950000 0.060000
				CHANNELS 3 Zrotation Yrotation Xrotation
				JOINT Neck
				{
					OFFSET 0.000000 0.000000 0.000000
					CHANNELS 3 Zrotation Yrotation Xrotation
					JOINT Neck1
					{
						OFFSET 0.000000 1.600000 0.340000
						CHANNELS 3 Zrotation Yrotation Xrotation
						JOINT Head
						{
							OFFSET 0.000000 1.667000 -0.240000
							CHANNELS 3 Zrotation Yrotation Xrotation
							End Site
							{
								OFFSET 0.000000 0.000000 0.000000
							}
						}
					}
				}
				JOINT LeftShoulder
				{
					OFFSET 0.000000 0.000000 0.000000
					CHANNELS 3 Zrotation Yrotation Xrotation
					JOINT LeftArm
					{
						OFFSET 2.700000 1.550000 -0.730000
						CHANNELS 3 Zrotation Yrotation Xrotation
						JOINT LeftForeArm
						{
							OFFSET 5.450000 0.000000 0.000000
							CHANNELS 3 Zrotation Yrotation Xrotation
							JOINT LeftHand
							{
								OFFSET 3.450000 0.000000 0.000000
								CHANNELS 3 Zrotation Yrotation Xrotation
								JOINT LeftHandIndex1
								{
									OFFSET 0.750000 0.000000 0.000000
									CHANNELS 3 Zrotation Yrotation Xrotation
									End Site
									{
										OFFSET 0.000000 0.000000 0.000000
									}
								}
							}
						}
					}
				}
				JOINT RightShoulder
				{
					OFFSET 0.000000 0.000000 0.000000
					CHANNELS 3 Zrotation Yrotation Xrotation
					JOINT RightArm
					{
						OFFSET -2.700000 1.550000 -0.730000
						CHANNELS 3 Zrotation Yrotation Xrotation
						JOINT RightForeArm
						{
							OFFSET -5.450000 0.000000 0.000000
							CHANNELS 3 Zrotation Yrotation Xrotation
							JOINT RightHand
							{
								OFFSET -3.450000 0.000000 0.000000
								CHANNELS 3 Zrotation Yrotation Xrotation
								JOINT RightHandIndex1
								{
									OFFSET -0.750000 0.000000 0.000000
									CHANNELS 3 Zrotation Yrotation Xrotation
									End Site
									{
										OFFSET 0.000000 0.000000 0.000000
									}
								}
							}
						}
					}
				}
			}
		}
	}
}
MOTION
Frames: 4
Frame Time: 0.016667
-0.540960 17.361010 -2.941480 -8.692929 21.731968 -4.589859 -14.918517 11.601239 2.306395 7.740182 -0.021494 -0.496075 -8.018880 4.567985 -0.041163 -0.189625 4.727240 3.361906 0.242800 -0.044700 -0.005860 18.795716 -9.309776 4.927008 -14.532785 10.267322 -32.667449 51.027237 -25.016235 32.977864 -1.712738 -10.347116 0.975161 0.102710 0.779580 0.305450 -5.001152 0.026140 -8.523032 27.245372 -7.537430 19.804522 -13.989300 -2.208156 8.715068 3.000833 -2.441689 -12.396951 -3.190532 -1.092099 22.234680 -0.684640 -5.415610 -0.956070 2.425920 -7.304912 4.563395 4.085346 -4.810782 0.805172 5.627963 3.904573 -1.029934 -4.647823 2.752156 0.051700 0.481540 -0.417470 0.323430 -9.062790 10.397750 9.498428 9.320197 4.838250 -4.780205 -123.847227 56.372496 -101.821701 1.927263 -1.855838 -0.215210 0.275450 0.103260 0.060430 
-0.547930 17.371920 -2.949760 -9.682506 21.254159 -4.105919 -14.911325 11.681946 2.285176 8.593927 -0.254810 -1.885708 -7.944801 4.564813 0.355451 -0.177226 4.611339 3.395270 0.236710 -0.034000 -0.001980 18.786235 -9.288724 4.907920 -14.195781 9.964597 -32.645193 51.066210 -25.379654 32.980319 -1.726704 -10.336518 0.997019 0.087230 0.751880 0.279480 -4.980741 -0.178997 -8.488907 28.518695 -8.129733 19.387277 -14.202328 -2.580102 7.488450 3.006219 -2.900414 -12.236418 -4.075887 -0.930294 22.430613 -0.858050 -5.129150 -0.822210 2.625853 -5.993329 4.207955 3.245765 -4.407412 0.660409 6.639719 3.124003 -0.877728 -4.580726 2.777376 0.049330 0.458990 -0.399040 0.325310 -9.352481 9.233218 9.405236 9.201457 3.060649 -4.379879 -125.888378 56.327738 -103.802075 1.956182 -1.941875 -0.203820 0.271320 0.077660 0.066890 
-0.563600 17.379900 -2.953180 -10.506059 19.994367 -3.583495 -14.911896 11.767122 2.329874 9.573695 -0.445210 -2.812895 -8.154562 4.573386 0.238611 -0.119959 4.597411 3.401881 0.210930 -0.063080 -0.009440 18.761320 -9.271999 4.856825 -13.969253 9.671416 -32.174966 50.394214 -25.545101 33.220040 -1.707418 -10.348706 1.005252 0.048990 0.749170 0.288800 -4.908887 -0.408254 -8.479010 29.124221 -8.756437 19.403525 -14.168595 -3.011066 6.021959 3.042755 -3.061084 -12.251790 -4.399543 -0.347558 22.339467 -1.497040 -4.052800 0.897310 3.045364 -4.389358 3.988775 3.202256 -2.272134 0.613030 6.596488 1.061491 -0.763348 -4.535595 2.847835 0.010850 0.476240 -0.410030 0.324430 -9.981826 7.835351 9.455561 9.092506 1.512997 -3.764878 -123.637357 56.794446 -100.092173 1.989861 -1.888471 -0.180960 0.220790 0.062410 0.074200 
-0.586060 17.376530 -2.948990 -10.823043 19.025386 -2.702964 -14.891649 11.827760 2.318207 9.818682 -0.593455 -3.901909 -7.828696 4.492700 0.548989 -0.122876 4.466549 3.438596 0.220600 -0.058560 -0.021570 18.767152 -9.309987 4.804831 -14.358138 9.220848 -31.969613 48.963022 -25.591269 33.818303 -1.693093 -10.338413 1.008451 0.035670 0.731530 0.278560 -4.923608 -0.512759 -8.414505 29.655202 -9.303209 18.933262 -14.516863 -3.347928 4.975323 2.636409 -3.583407 -12.216441 -5.368105 0.189169 22.222083 -0.515610 -4.179310 1.181850 3.832035 -3.199699 4.102704 3.685048 0.684437 0.729584 5.619896 -2.595939 -0.626283 -4.369423 2.962606 0.023560 0.445880 -0.403780 0.342320 -9.992581 6.755832 9.158706 7.420398 -0.312353 -3.371269 -122.822451 56.600038 -97.418533 2.009574 -1.879823 -0.170570 0.196820 0.040540 0.083910 
